<svg width="6" height="5" viewBox="0 0 6 5" fill="none" xmlns="http://www.w3.org/2000/svg">
<path d="M3.01538 4.22374C3.43398 4.22374 3.84317 4.09963 4.19122 3.86712C4.53926 3.63461 4.81053 3.30414 4.97072 2.91748C5.13091 2.53083 5.17282 2.10537 5.09116 1.6949C5.0095 1.28444 4.80792 0.907398 4.51193 0.611468C4.21594 0.315537 3.83883 0.114006 3.42828 0.0323589C3.01773 -0.0492882 2.59219 -0.00738394 2.20546 0.152772C1.81873 0.312929 1.48818 0.584144 1.25563 0.932122C1.02307 1.2801 0.898941 1.68921 0.898941 2.10772C0.897873 2.3859 0.951888 2.66154 1.05787 2.91875C1.16385 3.17595 1.31971 3.40965 1.51645 3.60635C1.71319 3.80305 1.94693 3.95888 2.2042 4.06484C2.46146 4.1708 2.73715 4.2248 3.01538 4.22374Z" fill="#BDBDBD"/>
</svg>
