<svg width="132" height="25" viewBox="0 0 132 25" fill="none" xmlns="http://www.w3.org/2000/svg">
<path fill-rule="evenodd" clip-rule="evenodd" d="M14.3219 15.0259L11.7532 7.02187L9.25188 15.0259H14.3219ZM23.7311 24.171H17.2166L15.7383 19.5844H7.80733L6.31781 24.171H0L7.16093 3.49761C7.41755 2.64548 7.88546 1.87206 8.52117 1.24928C9.40946 0.41909 10.5883 -0.0290194 11.8037 0.00145886C14.0521 0.00145886 15.5866 1.17621 16.4241 3.53134L23.7311 24.171Z" fill="white"/>
<path fill-rule="evenodd" clip-rule="evenodd" d="M46.7372 0.428669V19.4495C46.7372 21.0009 46.578 22.0857 46.2595 22.704C45.952 23.2642 45.4678 23.7069 44.8823 23.9631C44.2271 24.294 43.503 24.4654 42.7689 24.4633C42.1544 24.4946 41.5406 24.387 40.9733 24.1486C40.406 23.9102 39.8997 23.5471 39.492 23.0862C38.9972 22.4283 38.5573 21.7308 38.1767 21.0009L31.3586 8.94984V24.171H25.3556V5.50428C25.3556 4.31266 25.3556 3.54823 25.4174 3.2166C25.4843 2.81993 25.6234 2.4389 25.8277 2.09243C26.1642 1.48048 26.6856 0.9906 27.3173 0.692848C28.0258 0.340856 28.8083 0.163546 29.5993 0.175731C30.5124 0.137615 31.4122 0.404592 32.1568 0.934543C33.0582 1.73232 33.7953 2.69844 34.3264 3.77868L40.7286 15.0822V0.428669H46.7372Z" fill="white"/>
<path d="M56.3432 0.42865H50.3345V24.1766H56.3432V0.42865Z" fill="white"/>
<path fill-rule="evenodd" clip-rule="evenodd" d="M87.3645 24.171H81.3558V10.2876L77.4774 21.4562C77.2824 22.1001 77.0245 22.7233 76.7074 23.3167C76.1753 24.1261 75.2703 24.5308 73.9925 24.5308C72.711 24.5308 71.7948 24.1148 71.2327 23.2829C70.8798 22.6904 70.5843 22.0655 70.3502 21.4168L65.8929 10.119V24.171H59.8843V5.43681C59.8702 4.70135 59.8983 3.96568 59.9686 3.23345C60.0223 2.83678 60.1541 2.4547 60.3564 2.10928C60.7322 1.50784 61.2807 1.03377 61.9302 0.749039C62.6501 0.399711 63.4402 0.219018 64.2404 0.220682C64.9205 0.21652 65.5947 0.346399 66.2245 0.602898C66.7993 0.817429 67.3167 1.16175 67.7365 1.60903C67.9531 1.86945 68.1415 2.15206 68.2986 2.45215C68.4223 2.68823 68.6921 3.35148 69.108 4.44192L73.7958 16.3019L77.8934 4.49813C78.2419 3.47514 78.4555 2.81188 78.6072 2.57019C78.7794 2.22616 78.9968 1.90669 79.2536 1.62027C79.6955 1.1412 80.2385 0.766539 80.8433 0.523481C81.448 0.280422 82.0993 0.175066 82.7498 0.215061C83.5798 0.204024 84.4012 0.384842 85.1499 0.743419C85.8286 1.05161 86.3973 1.55946 86.7799 2.19921C87.1546 2.84373 87.342 3.9042 87.342 5.3806L87.3645 24.171Z" fill="white"/>
<path fill-rule="evenodd" clip-rule="evenodd" d="M111.394 0.42865V15.1159C111.394 17.1394 111.107 18.657 110.534 19.68C109.585 21.3462 108.144 22.6776 106.408 23.4909C104.652 24.3588 102.717 24.8016 100.759 24.7837C98.5566 24.8176 96.3864 24.2522 94.4805 23.148C92.7636 22.2456 91.4085 20.7813 90.6415 18.9999C90.2174 17.7332 90.0269 16.4 90.0794 15.0653V0.42865H96.0431V15.099C96.0232 15.7857 96.0836 16.4723 96.2229 17.145C96.3565 17.6218 96.5968 18.0619 96.9255 18.4322C97.401 18.9815 97.9953 19.4153 98.6634 19.7006C99.3315 19.986 100.056 20.1154 100.781 20.0791C101.509 20.1211 102.237 19.9855 102.901 19.6839C103.565 19.3823 104.145 18.9238 104.592 18.3478C104.896 17.9596 105.115 17.5113 105.233 17.0326C105.369 16.3633 105.428 15.6805 105.407 14.9978V0.42865H111.394Z" fill="white"/>
<path fill-rule="evenodd" clip-rule="evenodd" d="M129.526 0.743436V5.69538C127.724 4.96319 125.805 4.55779 123.861 4.49815C122.75 4.43223 121.648 4.73235 120.724 5.35251C120.411 5.55808 120.152 5.836 119.969 6.16277C119.786 6.48954 119.685 6.85555 119.673 7.22987C119.658 7.54704 119.725 7.86272 119.868 8.14633C120.011 8.42994 120.224 8.67187 120.488 8.84867C121.45 9.36021 122.491 9.70605 123.568 9.87166C124.939 10.1331 126.292 10.4785 127.621 10.9059C128.393 11.193 129.106 11.6198 129.723 12.165C130.446 12.7601 131.026 13.5101 131.42 14.3594C131.814 15.2088 132.012 16.1358 131.999 17.0719C131.999 19.4664 130.92 21.3775 128.768 22.7883C126.943 23.9874 124.558 24.5851 121.612 24.5814C119.071 24.5188 116.549 24.1373 114.103 23.446V18.3872C117.175 19.4552 119.72 19.991 121.736 19.9948C122.804 20.0633 123.867 19.8024 124.782 19.2472C125.122 19.0367 125.403 18.744 125.599 18.3962C125.796 18.0485 125.901 17.6568 125.907 17.2574C125.907 16.33 125.395 15.6499 124.355 15.2227C123.327 14.8943 122.277 14.637 121.213 14.4526C118.178 13.8418 116.102 12.8207 114.985 11.3893C114.106 10.305 113.626 8.95177 113.625 7.55588C113.63 6.67901 113.809 5.8119 114.153 5.00512C114.496 4.19834 114.997 3.46806 115.626 2.85687C116.561 1.87907 117.718 1.14069 118.999 0.70409C120.531 0.223891 122.131 -0.00205977 123.737 0.0352112C125.687 0.048896 127.63 0.286527 129.526 0.743436Z" fill="white"/>
</svg>
